<svg xmlns="http://www.w3.org/2000/svg" width="784.57" height="142.83"><path fill="#4f419b" d="M30.96 139.75c-13.32 0-24.74-9.43-27.15-22.42-.38-2.03-.56-4.11-.7-5.63-.05-.56-.09-1.06-.14-1.46v-.14c.23-8.68 1.27-16.58 3.36-25.62 3.82-16.47 10.51-32.02 19.89-46.24 5.25-7.96 10.55-14.38 16.21-19.63 4.19-3.89 9.38-8.18 16.07-10.51 2.36-.82 4.65-1.24 6.8-1.24 5.49 0 10.16 2.65 13.89 7.87 4.12 5.77 6.77 12.49 7.88 19.95.6 4.02.96 8.13 1.31 12.11.14 1.53.27 3.05.42 4.58.13 1.3.67 1.38.96 1.42.05 0 .1.01.15.01.43 0 .79-.39 1.05-1.16.54-1.58 1.06-3.16 1.59-4.74 1.23-3.7 2.5-7.52 3.93-11.22 2.81-7.23 6.42-12.84 11.03-17.16 6-5.62 12.72-8.47 19.97-8.47.36 0 .72 0 1.09.02 7.39.28 13.17 4.04 16.7 10.86 1.09 2.11 1.8 4.4 2.49 6.62.21.68.42 1.36.65 2.04.27.81.01 1.84-.36 2.49-4.31 7.51-6.83 15.93-7.48 25.02-.57 8 .51 14.91 3.32 21.13.31.68.39 1.51.21 2.16-3.97 14.41-9.03 26.63-15.47 37.38-4.13 6.89-8.81 11.92-14.31 15.38-4.51 2.83-9.21 4.39-13.98 4.62-.42.02-.83.03-1.24.03-6.77 0-12.6-2.84-17.33-8.43-4.47-5.29-7.08-11.71-7.97-19.64-.79-7.04-.14-14.07.69-20.62l.11-.87c.16-1.26.33-2.56.44-3.84.11-1.29-.54-1.39-.79-1.43-.06 0-.11-.01-.17-.01-.74 0-1.02.86-1.1 1.23-.32 1.42-.62 2.83-.93 4.25-.71 3.28-1.44 6.68-2.28 10-2.54 10.11-5.59 17.42-9.89 23.72-5.58 8.18-12.25 13.47-20.41 16.19a27 27 0 0 1-8.53 1.39Z"/><path fill="#fe4f9b" d="M266.03 135.66c-4.62 0-9.42-1.04-14.27-3.08-11.8-4.97-20.14-13.75-24.8-26.1-2.7-7.16-4.36-14.98-5.08-23.93-.63-7.88-.62-15.82.04-23.59.59-7.03 1.9-16.17 6.8-24.53 4.07-6.94 9.86-11.35 17.2-13.09 1.61-.38 3.21-.58 4.75-.58 6.4 0 11.84 3.34 15.32 9.42 2.15 3.76 3.56 8.15 4.42 13.82.31 2.05.55 4.13.77 6.15.12 1.09.25 2.17.38 3.26.15 1.18.62 1.18.97 1.18h.11c.26-.02.95-.05.96-1.31.03-5.11.21-10.61 1.35-16.14 1.54-7.48 4.35-12.85 8.85-16.9 3.59-3.24 7.27-4.85 11.26-4.93h.31c4.43 0 8.34 1.9 11.97 5.81 3.74 4.03 6.03 9.26 6.99 15.96.6 4.19.7 8.66.31 14.07-.03.45-.06.91-.05 1.36 0 1.12.64 1.15.92 1.16.5 0 .99-.12 1.1-1.05.07-.61.13-1.23.19-1.84.1-1.05.2-2.13.37-3.19 1.26-7.49 3.73-13.76 7.55-19.16 2.08-2.94 4.39-5.02 7.06-6.36 1.6-.8 3.2-1.21 4.76-1.21 2.48 0 4.77 1 6.83 2.97 3.12 2.99 4.91 6.83 6.36 10.52 3.97 10.05 6.41 19.66 7.47 29.36.25 2.32.38 4.66.5 6.92.06 1.02.11 2.03.18 3.02l-1.44.97c-.64-.31-1.27-.65-1.88-.99-1.27-.69-2.46-1.34-3.7-1.67-.75-.2-1.5-.31-2.25-.31-2.31 0-4.58.96-6.94 2.94-3.58 3-5.77 7.05-6.71 12.38-1.12 6.38-.42 13.03 2.27 21.55.51 1.61 1.1 3.23 1.67 4.79.26.71.52 1.42.77 2.14l-.33 1.12c-4.99 3.91-10.44 5.97-15.76 5.98-8.64 0-16.47-5.5-19.96-14.01-1.06-2.58-1.41-5.43-1.08-8.71.12-1.24-.5-1.35-.79-1.4-.08-.01-.16-.02-.23-.02-.19 0-.7 0-.95 1-1.42 5.55-3.04 11.44-5.78 17.02-4.46 9.08-10.59 14.83-18.73 17.58-3.27 1.1-6.65 1.66-10.05 1.66Z"/><path fill="#fef300" d="M592.75 124.44c-.82 0-1.65-.05-2.48-.16-5.73-.75-9.82-4.03-12.5-10.03-1.94-4.33-2.74-9-3.41-13.42-1.42-9.46-1.95-18.26-1.64-26.91.52-14.57 2.51-26.2 6.26-36.58 2.43-6.73 5.81-11.79 10.34-15.48 3.16-2.57 6.97-4.39 11.33-5.4 4.66-1.08 8.78-1.61 12.58-1.61 1.79 0 3.55.12 5.25.35 5.53.75 9.91 3.73 13.02 8.87 2.65 4.36 4.47 9.53 5.73 16.26.55 2.95 1.01 5.96 1.45 8.87.25 1.62.49 3.24.75 4.85.1.64.27 1.21.49 1.68.33.71.8.79 1.12.79h.18c.8-.08.97-.54 1.04-.88.17-.93.26-1.95.25-3.01-.04-5.11.16-11.1 1.95-16.88 2.89-9.36 7.8-15.66 14.99-19.27 4.22-2.12 8.49-3.19 12.67-3.19 5.14 0 10.2 1.62 15.03 4.81 1.9 1.25 3.51 3.05 4.68 5.19l-.09 1.1c-.6.76-1.2 1.5-1.8 2.23-1.31 1.6-2.55 3.12-3.66 4.75-3.91 5.7-6.44 11.83-7.54 18.24-1.54 8.94 1.25 15.67 8.53 20.57.11.07.21.15.37.29l.28.24.31 1.1c-.54 1.56-1.08 3.14-1.61 4.72-1.2 3.54-2.44 7.2-3.79 10.78-3.27 8.7-6.81 16.16-10.83 22.8-2.27 3.75-4.7 6.65-7.42 8.85-4.19 3.39-8.95 5.18-13.76 5.18s-9.02-1.67-12.87-4.82c-3.71-3.04-6.59-7.01-8.57-11.8-2.18-5.28-3.18-11.13-3.16-18.42 0-3.16.17-6.35.32-9.45.07-1.33.13-2.65.18-3.98.03-.77-.25-1-.75-1.13-.11-.03-.22-.04-.31-.04-.14 0-.56 0-.91.77-.09.21-.18.43-.24.65-.38 1.32-.77 2.63-1.16 3.94-.88 2.98-1.8 6.06-2.6 9.11l-.63 2.44c-1.51 5.89-3.07 11.98-5.96 17.58-3.25 6.3-7.01 10.42-11.83 12.98-3.13 1.66-6.35 2.5-9.57 2.5Z"/><path fill="#97cf45" d="M704.59 133.25c-5.43-.17-10.11-.98-14.31-2.46-6.68-2.36-9.88-7.5-9.24-14.87 1.31-15.25 9.17-27.02 23.34-35.01 5.17-2.91 10.96-5.2 17.21-6.82.87-.22.99-.49 1.06-.79.06-.26.08-.63-.13-.89-.18-.23-.51-.35-.93-.35-.1 0-.19 0-.3.02-1.08.14-2.16.3-3.24.46-2.69.39-5.46.8-8.23.93-.79.04-1.59.06-2.38.06-6.52 0-12.14-1.3-17.17-3.96-5.83-3.09-9.12-7.62-9.79-13.46-.51-4.45.6-8.58 1.75-12.05 3.98-12 12.18-21.29 25.05-28.4 9.1-5.02 19.44-8.58 31.63-10.87 4.89-.92 9.67-1.74 14.5-1.74.63 0 1.27.01 1.9.04 4.98.23 8.9 1.1 12.34 2.73 3.2 1.52 5.7 3.72 7.43 6.54 2.53 4.13 2.64 8.36.33 12.57-1.86 3.4-4.53 6.12-7.11 8.76l-.48.49c-5.58 5.7-11.54 11-17.73 15.76l-.11.09c-1.07.86-.73 1.41-.59 1.64.25.41.54.46.74.46.25 0 .55-.09.88-.27 3.45-1.86 7.15-2.81 10.98-2.81.44 0 .88.01 1.32.04 6.92.38 11.91 2.87 15.25 7.59 2.78 3.92 2.99 8.47 2.91 11.55-.21 7.98-2.48 15.67-6.94 23.5-6.53 11.45-15.92 20.59-28.7 27.93-7.17 4.12-15.83 8.68-25.71 11.24-2.8.73-5.13 1.22-7.36 1.54-1.87.28-3.77.42-5.62.57-.81.06-1.61.13-2.42.2h-.12Z"/><path fill="#be489a" d="M179.93 139.09c-6.27-.28-13.66-.95-20.91-3.77-5.92-2.3-10.48-5.55-13.92-9.94-4.97-6.34-5.5-13.96-1.45-20.91 3.11-5.33 7.61-9.06 11.61-12 .35-.26.72-.51 1.08-.76.45-.31.91-.62 1.34-.96.35-.28.54-.65.5-1.01-.04-.31-.25-.57-.59-.72-8.28-3.73-13.03-10.55-14.54-20.87-1.86-12.7.72-24.96 7.66-36.44 3.28-5.42 8.18-9.37 15.42-12.44 8.83-3.75 17.9-5.65 26.94-5.65.81 0 1.62.01 2.43.04 6.59.24 11.63 1.55 15.86 4.11 6.4 3.88 9.23 9.36 8.39 16.27-.6 4.95-3.02 9.31-7.4 13.32-4.58 4.19-10.01 6.69-15.64 9.09-.5.21-1.01.42-1.52.63-.49.2-.98.4-1.47.61-1.12.48-.87 1.2-.79 1.44.18.51.65.59.92.59.17 0 .34-.03.53-.08 3.59-1.07 7.49-2.1 11.59-2.33.48-.03.96-.04 1.43-.04 4.09 0 7.63.99 10.83 3.04.97.62 1.4 1.41 1.4 2.57 0 3.28.03 6.56.06 9.84.02 2.94.05 5.88.06 8.82 0 .83-.47 1.65-.87 2.1-3.65 4.06-8.15 6.72-12.46 8.99l-.58.3c-.59.3-1.14.59-1.66.92-.31.2-.98.74-.51 1.51.19.31.48.47.82.47.22 0 .45-.07.68-.2 2.54-1.44 4.78-2.19 7.04-2.38.48-.04.95-.06 1.42-.06 2.29 0 4.57.45 6.76 1.35 1.05.43 1.44 1.9 1.5 2.19 1.39 6.06 3.27 11.4 5.76 16.3l.23.45c.33.66.64 1.28 1.03 1.82.97 1.35.59 2.55.14 3.44-2.98 5.98-7.93 10.45-15.12 13.67-5.38 2.4-11.47 4.02-19.19 5.1-3.39.47-6.84.8-10.18 1.12-1.5.14-3 .28-4.5.44h-.15Z"/><path fill="#fec726" d="M554.7 129.99c-1.2 0-2.46-.25-3.75-.74-4.59-1.77-8.33-5.05-11.43-10.04-2.94-4.74-4.69-10.38-5.52-17.73-.33-2.92-.1-5.82.13-8.61.12-1.53.25-3.11.28-4.65.04-1.8 0-3.72-.1-6.03-.05-1.14-.64-1.16-.96-1.17-.5 0-.98.09-1.06 1.19l-.15 2.04c-.19 2.44-.38 4.97-.36 7.44.05 6.56-1.52 12.91-4.8 19.42-4.21 8.34-11.29 13.78-21.04 16.15-1.33.32-2.67.49-3.99.49-9.53 0-15.78-8.08-16.11-15.56-.04-.9-.03-1.8-.02-2.67v-.89l-.37-.43c.26-2.67.5-5.34.74-8.01.53-5.85 1.08-11.91 1.81-17.84 2.17-17.68 5.81-30.75 11.8-42.38 4.69-9.1 9.86-16.41 15.82-22.33 3.74-3.71 7.53-6.5 11.6-8.51 4.01-1.99 8.08-2.99 12.09-2.99 4.42 0 8.87 1.22 13.25 3.63 6.14 3.38 11.02 8.47 15.34 16 2.74 4.77 4.94 9.94 6.72 15.78.24.77.25 1.68.06 2.49-2.21 9-3.53 18.41-3.93 27.94-.45 10.7.27 21.65 2.14 32.55.11.65.05 1.35-.17 1.92-2.61 6.88-5.52 12.61-8.9 17.54-.73 1.07-1.65 2.12-2.88 3.3-1.85 1.78-3.96 2.68-6.28 2.68Zm-18.64-84.7c-.1 0-.2.01-.31.04-.26.06-.44.18-.55.37-.18.29-.2.74-.06 1.26 1.15 4.38 1.25 8.88.29 13.38-.06.28-.19 1.22.71 1.44.09.02.18.03.26.03.51 0 .89-.39.99-1.02.25-1.52.45-3.05.66-4.68q.135-1.005.27-2.07c-.1-.67-.21-1.35-.31-2.05-.27-1.81-.56-3.69-.9-5.55-.1-.52-.35-1.13-1.04-1.13Z"/><path fill="#fe902e" d="M449.16 135.58c-3.17 0-5.57-.16-7.78-.52-12.64-2.06-21.84-8.13-27.33-18.04-3.76-6.79-3.94-14.47-.51-22.82 2.55-6.22 6.83-11.54 12.71-15.81.92-.67 1.01-1 .87-1.49-.12-.42-.34-.67-1.07-.72-6.27-.41-11.55-1.59-16.14-3.62-5.21-2.3-8.55-5.2-10.53-9.12-1.97-3.9-2.2-8.28-.73-13.78 2.09-7.86 6.62-14.61 13.84-20.65 10.37-8.68 22.47-13.67 35.95-14.82 1.66-.14 3.27-.21 4.81-.21 6.96 0 12.87 1.44 18.06 4.41 7.64 4.36 11.8 11.13 12.37 20.11.24 3.76-1.7 6.7-3.83 9.32-3.5 4.3-7.98 7.15-11.89 9.36a91 91 0 0 1-3.09 1.64c-.5.26-.99.51-1.49.77-.54.28-1.11.78-.74 1.52.17.35.42.51.81.51.24 0 .5-.06.8-.18 2.7-1.11 6.31-2.44 10.26-2.88.89-.1 1.71-.15 2.49-.15 2.06 0 3.88.35 5.55 1.06 1.87.8 3.37 2.02 4.47 3.63 1.31 1.93 1.67 3.69 1.17 5.72-.44 1.77-.73 3.63-1.02 5.43-.18 1.12-.35 2.23-.56 3.34-.17.89-.52 1.76-1 2.44-2.45 3.5-5.66 6.01-8.49 8-.99.7-2 1.36-3.02 2.03l-1.68 1.11c-1.2.8-.78 1.46-.64 1.67q.27.42.75.42c.31 0 .65-.12 1-.36 1.95-1.31 4.09-1.95 6.56-1.95.92 0 1.87.09 2.89.27 1.3.23 1.89.99 1.79 2.32l-.14 1.8c-.32 4.17-.66 8.49-.86 12.74-.33 6.88 1.14 11.64 4.74 15.43l-.03 1.41c-3.84 3.69-8.47 6.25-14.56 8.06-5.53 1.64-11.5 2.46-18.25 2.52-.9 0-1.81.03-2.71.04-1.26.02-2.52.05-3.77.05Z"/><path fill="#fe552d" d="M373.92 139.8c-9.52 0-17.75-4.15-24.45-12.33-7.46-9.11-12.06-20.67-12.93-32.57-.03-7.64 1.09-12.15 3.99-16.14 1.33-1.82 2.92-3.21 4.75-4.12 1.25-.62 2.48-.94 3.67-.94 1.58 0 3.09.56 4.47 1.66 4.4 3.5 8.03 7.93 11.11 13.55.73 1.33 1.33 2.72 1.92 4.07.25.58.51 1.17.77 1.74.22.48.58 1.05 1.07 1.05.13 0 .27-.03.43-.1.28-.12.46-.28.55-.48.12-.29.06-.73-.15-1.22-2.98-6.89-5.17-13.34-6.69-19.71-2.36-9.87-3.11-18.74-2.3-27.14.97-10.06 3.8-17.64 8.89-23.84 3.48-4.24 7.62-7.32 12.28-9.15 2.02-.79 4.05-1.2 6.02-1.2 2.92 0 5.78.87 8.51 2.6 4.52 2.86 8.14 6.98 11.73 13.37.45.8-.1 1.91-.49 2.33-4.46 4.69-7.54 9.52-9.42 14.78-1.94 5.44-2.45 9.7-1.64 13.79 1.09 5.55 4.39 9.85 10.07 13.13 3.13 1.81 6.77 3.15 11.12 4.08.89.19 1.9.62 1.89 2.29-.01 1.87-.52 3.29-1.64 4.62-4.32 5.11-7 10.93-7.95 17.31-.64 4.27-.29 8.62 1.03 12.91.21.67.29 1.64-.11 2.34-6.56 11.7-15.24 18.87-26.54 21.93-3.43.93-6.78 1.4-9.95 1.4Z"/><path fill="#040302" d="M539.34 54.01c-.34 2.51-.59 4.72-.95 6.92-.22 1.36-1.31 2.08-2.48 1.8-1.13-.27-1.72-1.32-1.45-2.61.92-4.33.84-8.63-.28-12.92-.38-1.46.18-2.59 1.37-2.85 1.23-.27 2.28.41 2.55 1.89.49 2.66.86 5.34 1.24 7.77"/><path fill="#040302" d="M0 103.75c.14-.75.34-1.49.42-2.25 3.06-28.44 13.53-53.83 31.51-76.09C37.3 18.76 43.4 12.85 50.78 8.4c3.93-2.37 8.11-4.12 12.74-4.51 6.52-.55 11.89 1.86 16.19 6.67 4.98 5.58 7.81 12.27 9.52 19.44.83 3.46 1.32 7.01 2 10.7.41-1.08.77-2.04 1.14-3.01 2.5-6.63 5.58-12.95 10.23-18.39 6.1-7.14 13.73-11.5 23.17-12.24 9.63-.76 18.29 3.9 22.97 13.79.81 1.72 1.42 3.53 2.12 5.33 0 0 .11.03.14-.02 4.85-5.63 11.22-8.84 18.05-11.28 8.16-2.91 16.58-4.42 25.24-4.28 6.2.11 12.28 1.01 17.78 4.08 7.4 4.13 11.45 10.34 10.77 18.99-.51 6.47-3.76 11.68-8.5 15.97-1.53 1.39-3.28 2.53-4.93 3.79-.3.23-.61.43-1.19.84 3.97.15 7.43 1.07 10.7 2.88.46-2.84.81-5.59 1.35-8.3 1.47-7.43 4-14.45 8.9-20.37 5.12-6.19 11.67-10.05 19.79-10.64 8.72-.64 15.18 3.25 19.52 10.67 1.26 2.15 2.06 4.56 3.06 6.85.14.32.23.65.42 1.16 1.15-5.23 2.83-10.01 5.89-14.21 3.06-4.19 6.87-7.48 11.86-9.11 7.17-2.34 13.36-.36 18.71 4.67 4.74 4.46 7.26 10.1 8.52 16.38.09.43.17.86.31 1.54.45-.99.8-1.78 1.17-2.56 2.21-4.71 4.98-9.01 9.22-12.19 4.01-3 8.39-4.22 13.27-2.4 2.98 1.11 5.19 3.23 7.03 5.76 2.88 3.94 4.6 8.44 6.19 13 .94 2.7 1.75 5.45 2.62 8.18.07.21.15.41.22.61.66-3.22 1.16-6.43 2-9.54 2.5-9.23 7.35-16.89 15.41-22.34 10.15-6.86 20.6-5.72 28.79 3.35 2.55 2.82 4.72 6 7.13 9.1.19-.15.57-.46.96-.77 11.31-9.02 24.16-14.14 38.63-14.95 8.05-.45 15.93.6 23.02 4.74 8.66 5.07 13.29 12.76 13.77 22.8.22 4.54-2.02 8.19-4.83 11.52-1.58 1.88-3.22 3.71-4.56 5.24 6.8.93 7.62 1.27 11.64 5.06.74-2.49 1.41-4.98 2.22-7.41 4.76-14.26 11.94-27.11 22.65-37.8 5.14-5.13 11.02-9.21 18.16-11.11 9.14-2.44 17.46-.33 25.12 4.88 6.4 4.35 10.95 10.31 14.46 17.09 1.66 3.2 3.07 6.53 4.64 9.9.35-.83.7-1.67 1.07-2.5 2.96-6.76 7.13-12.54 13.61-16.37 4.47-2.64 9.36-4.07 14.48-4.6 3.6-.37 7.25-.62 10.87-.53 8.77.22 14.93 4.64 18.93 12.31 2.52 4.84 3.98 10.02 5.11 15.44.62-2.22 1.09-4.36 1.82-6.41 3.09-8.74 8.18-16.01 16.79-19.94 10.52-4.8 20.88-4.19 30.5 2.6 1.85 1.31 3.28 3.21 4.74 4.67 3.75-2.46 7.5-5.18 11.49-7.47 8.92-5.13 18.59-8.37 28.62-10.48 5.03-1.06 10.15-1.65 15.23-2.46.12-.02.23-.15.35-.23h7.2c.95.16 1.9.33 2.86.47 5.47.79 10.59 2.46 14.67 6.38 3.84 3.68 6.01 8.11 5.51 13.57-.34 3.7-2.06 6.85-4.36 9.67-4.46 5.46-9.6 10.25-14.83 14.96-.33.3-.66.6-.86.77 2.78.3 5.61.34 8.3.96 8.22 1.89 13.87 6.68 15.71 15.16 1.1 5.07.57 10.17-.53 15.19-2.62 11.95-8.71 22.06-17.22 30.65-12.92 13.05-28.68 21.38-46.25 26.31-9.37 2.63-18.9 2.93-28.4.33-10.09-2.76-13.85-9.27-13.62-18.05.19-7.2 2.53-13.84 6.02-20.06 4.6-8.18 11.52-13.96 19.64-18.43.71-.39 1.44-.77 2.15-1.16-5.19-.46-10.18-1.42-14.95-3.45-.12.29-.21.47-.26.66a176 176 0 0 1-12.95 32.42c-2.77 5.34-5.9 10.41-10.49 14.43-9.79 8.57-23.15 8.46-32.46-.29-5.99-5.63-9.26-12.68-10.59-20.68-.42-2.5-.63-5.04-.95-7.7-.12.38-.2.64-.28.9-1.12 3.78-2.07 7.61-3.38 11.32-2.35 6.66-5.74 12.73-11.27 17.33-5.49 4.55-11.8 6.64-18.92 5.55-6.88-1.05-11.32-5.31-14.16-11.44-.49-1.05-.89-2.15-1.4-3.38-.97 1.98-1.8 3.82-2.75 5.6-2.14 4.01-4.22 8.07-7.55 11.28-3.73 3.59-8.11 4.81-12.98 2.98-2.39-.9-4.71-2.2-6.74-3.76-5.57-4.29-8.8-10.19-10.82-16.81-.37-1.22-.67-2.46-1.05-3.85-.19.48-.3.77-.42 1.07-3.79 9.56-10.44 16.29-20.06 19.96-7.11 2.71-14.08 2.99-20.62-1.76-.18.14-.38.28-.55.44-4.67 4.33-10.23 7.02-16.33 8.63-10.48 2.76-21.17 3.11-31.86 2.09-9.89-.94-18.25-5.47-25.27-12.41-1.76-1.74-3.18-3.81-4.78-5.75-.2.31-.44.68-.67 1.04-5.9 9.05-13.61 15.91-23.97 19.45-8.92 3.05-17.85 3.26-26.63-.6-7.78-3.42-13.37-9.26-17.76-16.37-.8-1.3-1.53-2.65-2.3-3.97-.67.44-1.26.84-1.87 1.22-5.4 3.35-11.23 5.32-17.62 4.55-9.22-1.11-15.65-6.26-19.75-14.46-.17-.34-.32-.68-.35-.74-1.86 3.83-3.45 7.9-5.7 11.57-7.46 12.15-18.4 17.95-32.71 16.67-9.91-.88-18.44-5.13-25.76-11.78-1.93-1.75-3.66-3.74-5.39-5.52-1.14 1.6-2.23 3.33-3.53 4.88-4.63 5.54-10.74 8.81-17.46 11.04-7.3 2.43-14.85 3.68-22.5 4.41-8.86.84-17.64.47-26.24-2.01-7.79-2.25-14.52-6.19-19.45-12.78-3.52-4.71-5.01-9.99-4.08-15.87.81-5.1 3.26-9.41 6.72-13.1 2.53-2.69 5.36-5.1 7.89-7.49-2.09-1.86-4.35-3.87-6.46-5.75-1.73 4.86-3.36 9.86-5.29 14.74-3.47 8.79-7.42 17.36-13.05 25.03-4.91 6.7-10.92 12.08-18.92 14.82-10.82 3.71-20.49 1.88-28.53-6.5-5.18-5.4-8.02-12.01-9.29-19.32-.33-1.91-.53-3.85-.83-6.01-.51 1.4-.92 2.56-1.36 3.7-3.65 9.46-8.85 17.85-17.02 24.11-7.22 5.53-15.26 8.58-24.51 7.57-12.86-1.4-23.79-11.19-26.56-23.8-.41-1.82-.67-3.66-.99-5.48zm3.97 6.38c.17 1.5.32 4.29.83 7.02 2.89 15.62 19.31 25.29 34.38 20.26 8.53-2.85 14.91-8.5 19.9-15.81 4.86-7.12 7.67-15.13 9.75-23.4 1.19-4.71 2.15-9.48 3.2-14.22.31-1.39 1.23-2.17 2.39-1.99 1.14.17 1.76 1.06 1.64 2.5-.14 1.59-.36 3.17-.55 4.75-.85 6.77-1.45 13.54-.68 20.38.8 7.1 3.08 13.6 7.74 19.11 4.63 5.48 10.49 8.41 17.75 8.05 4.88-.24 9.37-1.88 13.5-4.47 6-3.77 10.4-9.06 13.98-15.04 6.95-11.61 11.77-24.13 15.36-37.14.12-.45.04-1.05-.15-1.48-3.11-6.9-3.94-14.14-3.41-21.62.65-9.05 3.08-17.55 7.61-25.44.27-.47.44-1.2.28-1.68-.94-2.87-1.7-5.85-3.08-8.51-3.29-6.35-8.6-10.04-15.85-10.32-7.93-.3-14.63 2.84-20.33 8.18-5 4.68-8.34 10.5-10.78 16.8-2.03 5.23-3.69 10.61-5.51 15.93-.45 1.33-1.24 1.97-2.3 1.82-1.11-.16-1.68-.97-1.82-2.31-.54-5.55-.91-11.13-1.73-16.64-1.05-7.06-3.51-13.65-7.7-19.52-4.92-6.9-11.54-9.05-19.55-6.26-6.09 2.12-11.07 5.98-15.72 10.3-6.22 5.77-11.41 12.39-16.06 19.44-9.32 14.12-15.93 29.43-19.75 45.92-1.84 7.94-3.09 15.96-3.34 25.42Zm352.92-36.41c-.21-3.22-.32-6.57-.68-9.9-1.09-10.04-3.7-19.72-7.41-29.1-1.47-3.72-3.17-7.33-6.13-10.17-3.06-2.93-6.68-3.48-10.45-1.59-2.79 1.4-4.92 3.54-6.69 6.04-3.99 5.64-6.25 11.98-7.38 18.74-.28 1.65-.36 3.33-.55 4.99-.15 1.29-.95 1.99-2.15 1.94-1.18-.05-1.87-.84-1.88-2.16 0-.48.02-.96.06-1.43.34-4.63.36-9.25-.3-13.85-.83-5.76-2.7-11.07-6.74-15.42-3.1-3.35-6.79-5.58-11.53-5.49-4.16.08-7.59 1.95-10.61 4.67-4.87 4.39-7.24 10.1-8.54 16.35-1.09 5.26-1.3 10.6-1.33 15.95 0 1.41-.73 2.24-1.9 2.3-1.24.07-1.95-.6-2.13-2.05-.39-3.13-.68-6.27-1.15-9.38-.72-4.71-1.91-9.29-4.3-13.47-4.11-7.17-10.94-10.27-18.97-8.37-7.34 1.74-12.78 6.15-16.57 12.62-4.36 7.44-5.95 15.67-6.66 24.11-.66 7.8-.66 15.62-.04 23.43.65 8.1 2.14 16.02 5.02 23.66 4.5 11.92 12.47 20.57 24.25 25.53 7.67 3.23 15.58 4.1 23.61 1.39 8.63-2.91 14.25-9.11 18.16-17.07 2.63-5.36 4.23-11.07 5.71-16.83.33-1.31 1.18-1.91 2.32-1.72 1.18.2 1.76 1.09 1.63 2.48-.28 2.82-.07 5.59 1.02 8.23 5.01 12.2 19.8 18.89 34.18 7.63-.82-2.32-1.72-4.62-2.46-6.97-2.26-7.18-3.62-14.48-2.3-22.03.89-5.1 3.01-9.59 7.05-12.97 2.91-2.44 6.27-3.86 10.09-2.83 1.97.53 3.76 1.75 5.76 2.72Zm334.06-49.97c-1.03-1.88-2.48-3.6-4.36-4.84-8.58-5.67-17.64-6.09-26.7-1.55-7.67 3.85-12 10.65-14.49 18.67-1.67 5.4-1.94 10.97-1.9 16.57 0 1.07-.07 2.15-.27 3.2-.18.99-.89 1.59-1.92 1.69-1.09.11-1.87-.4-2.32-1.35-.28-.6-.46-1.28-.57-1.94-.74-4.56-1.35-9.15-2.2-13.7-1.05-5.58-2.62-11.01-5.6-15.93-2.83-4.66-6.79-7.64-12.3-8.39-5.91-.8-11.72-.09-17.47 1.24-4.01.93-7.71 2.58-10.93 5.2-4.89 3.98-7.93 9.23-10.03 15.04-4.23 11.71-5.76 23.91-6.2 36.28-.32 8.95.31 17.87 1.63 26.72.67 4.5 1.45 8.97 3.33 13.17 2.3 5.14 5.91 8.68 11.72 9.44 4.05.53 7.87-.33 11.45-2.23 5.3-2.81 8.73-7.35 11.41-12.55 3.23-6.26 4.75-13.07 6.51-19.82 1.14-4.39 2.5-8.72 3.76-13.08.08-.27.18-.53.29-.78.49-1.09 1.34-1.56 2.39-1.29 1.09.28 1.54 1.04 1.5 2.14-.18 4.46-.49 8.93-.5 13.39-.02 6.17.7 12.26 3.08 18.03 1.84 4.46 4.53 8.33 8.28 11.41 8.18 6.7 17.94 5.64 25.37-.36 2.96-2.39 5.24-5.36 7.2-8.59 4.34-7.18 7.8-14.8 10.75-22.64 1.93-5.13 3.62-10.36 5.39-15.47-.33-.27-.44-.38-.57-.47-7.74-5.22-10.51-12.53-8.96-21.57 1.16-6.78 3.83-12.98 7.71-18.63 1.66-2.42 3.62-4.65 5.5-7.03Zm13.67 108.5c2.66-.24 5.34-.38 7.98-.77 2.44-.36 4.87-.9 7.26-1.52 9.08-2.36 17.39-6.5 25.47-11.14 11.79-6.78 21.54-15.66 28.33-27.56 4.07-7.14 6.6-14.75 6.81-23.04.1-3.9-.41-7.68-2.73-10.95-3.52-4.97-8.66-6.85-14.49-7.17-4.15-.23-8.09.67-11.77 2.65-1.25.67-2.32.45-2.94-.54s-.35-2.02.75-2.91c.06-.05.12-.1.19-.15 6.25-4.81 12.12-10.04 17.63-15.67 2.73-2.79 5.53-5.55 7.43-9.03 2.15-3.92 2.01-7.78-.31-11.57-1.7-2.77-4.08-4.78-7-6.16-3.78-1.79-7.83-2.44-11.96-2.64-5.47-.26-10.83.68-16.17 1.68-10.97 2.06-21.53 5.34-31.33 10.76-11.51 6.35-20.35 15.07-24.59 27.84-1.25 3.78-2.16 7.61-1.7 11.62.68 5.96 4.14 9.98 9.27 12.69 5.95 3.15 12.41 4.1 19.03 3.79 3.81-.18 7.6-.88 11.39-1.38 1.68-.22 2.81.86 2.46 2.44-.21.93-.9 1.31-1.78 1.54-5.94 1.53-11.62 3.71-16.97 6.72-13.41 7.55-21.5 18.71-22.84 34.22-.59 6.85 2.24 11.6 8.58 13.84 4.53 1.6 9.21 2.25 14.01 2.4Zm-524.64 5.85c4.88-.51 9.78-.87 14.64-1.55 6.5-.91 12.89-2.33 18.92-5.02 6.3-2.81 11.48-6.88 14.64-13.2.43-.87.54-1.57-.06-2.41-.53-.74-.92-1.59-1.33-2.4-2.67-5.25-4.54-10.79-5.85-16.53-.13-.55-.47-1.31-.91-1.49-2.46-1-5.04-1.44-7.73-1.22-2.42.19-4.55 1.08-6.63 2.25-1.11.63-2.27.31-2.85-.63-.61-1-.31-2.15.83-2.87.74-.47 1.53-.85 2.31-1.26 4.47-2.36 8.76-4.97 12.18-8.78.33-.37.62-.95.61-1.43-.02-6.22-.11-12.44-.12-18.66 0-.84-.27-1.3-.94-1.73-3.57-2.29-7.49-3.07-11.66-2.84-3.9.22-7.64 1.18-11.36 2.29-1.25.37-2.32-.12-2.68-1.14-.4-1.15.09-2.16 1.34-2.69.99-.42 2-.81 2.99-1.23 5.49-2.34 10.89-4.83 15.36-8.91 3.76-3.44 6.46-7.57 7.09-12.7.83-6.8-2.18-11.83-7.91-15.3-4.71-2.85-9.99-3.77-15.38-3.97-10.06-.37-19.7 1.6-28.94 5.52-6.12 2.59-11.43 6.22-14.96 12.04-6.69 11.05-9.4 22.99-7.53 35.78 1.3 8.89 5.27 16.18 13.97 20.1 1.47.66 1.58 2.44.3 3.43-.79.61-1.64 1.14-2.44 1.73-4.44 3.27-8.53 6.88-11.34 11.7-3.87 6.64-3.37 13.74 1.37 19.79 3.55 4.52 8.19 7.56 13.49 9.62 6.6 2.57 13.52 3.38 20.59 3.7Zm306.49-29.8.37.03c0 1.27-.05 2.55 0 3.82.38 8.56 8.61 16.64 18.86 14.15 9.09-2.21 16.12-7.17 20.39-15.63 3-5.94 4.75-12.22 4.69-18.96-.03-3.18.29-6.37.51-9.55.1-1.46.86-2.15 2.08-2.12 1.15.03 1.87.74 1.93 2.12.09 2.03.14 4.06.1 6.09-.08 4.38-.9 8.71-.41 13.13.69 6.13 2.08 12.01 5.37 17.31 2.67 4.3 6.11 7.78 10.94 9.64 3.32 1.28 6.38.77 8.97-1.73 1-.96 1.96-2.01 2.75-3.15 3.69-5.39 6.48-11.25 8.79-17.33.16-.42.19-.95.11-1.4-1.86-10.85-2.62-21.76-2.16-32.76.4-9.51 1.69-18.89 3.96-28.14.15-.62.15-1.36-.04-1.96-1.65-5.42-3.8-10.65-6.63-15.57-3.69-6.44-8.34-11.98-14.96-15.62-8.03-4.42-16.16-4.7-24.41-.62-4.27 2.11-7.98 4.99-11.34 8.32-6.49 6.45-11.47 13.98-15.64 22.08-6.8 13.21-9.9 27.46-11.69 42.04-1.05 8.58-1.71 17.22-2.55 25.83Zm1.3 15.89c-4.39-4.6-5.3-10.23-5.02-16.17.23-4.86.63-9.71 1-14.56.06-.82-.16-1.12-.96-1.26-3.1-.54-6.04-.28-8.73 1.53-1.24.84-2.51.66-3.15-.35-.68-1.06-.34-2.19.93-3.04 1.56-1.05 3.15-2.05 4.68-3.13 3.11-2.2 6.04-4.6 8.25-7.76.42-.59.7-1.34.84-2.06.56-2.94.87-5.93 1.59-8.82.48-1.92 0-3.42-1.03-4.92-1.02-1.49-2.38-2.57-4.03-3.27-2.42-1.04-4.96-1.13-7.53-.84-3.48.39-6.77 1.49-9.99 2.81-1.31.54-2.38.21-2.88-.81-.54-1.09-.09-2.18 1.17-2.85 1.52-.8 3.06-1.56 4.55-2.4 4.33-2.45 8.43-5.21 11.61-9.12 2.05-2.52 3.83-5.24 3.61-8.63-.53-8.49-4.47-15.08-11.87-19.3-6.89-3.94-14.54-4.73-22.28-4.06-13.3 1.14-25.15 6.02-35.4 14.59-6.44 5.39-11.31 11.89-13.51 20.14-1.18 4.43-1.47 8.83.66 13.07 2.14 4.25 5.82 6.79 10.04 8.66 5.03 2.22 10.35 3.19 15.8 3.54 1 .07 1.69.48 1.97 1.43.36 1.21-.33 1.93-1.24 2.58-5.52 4-9.77 9.05-12.37 15.38-3.02 7.36-3.47 14.86.46 21.95 5.75 10.38 15.23 15.68 26.61 17.53 4.6.75 9.39.46 14.1.42 6.08-.05 12.11-.75 17.97-2.48 5.23-1.55 10.04-3.87 14.15-7.82ZM337.55 94.83c.78 10.61 4.63 22.16 12.71 32.01 8.75 10.67 20.06 14.2 33.36 10.6 11.83-3.2 20.05-10.97 25.92-21.45.23-.4.17-1.08.02-1.56-1.35-4.38-1.74-8.82-1.06-13.35 1.01-6.73 3.82-12.65 8.18-17.81 1.05-1.24 1.4-2.47 1.41-3.98 0-.87-.29-1.13-1.11-1.3-4-.86-7.85-2.14-11.41-4.19-5.43-3.14-9.31-7.49-10.55-13.81-.97-4.94.03-9.68 1.68-14.32 2.06-5.77 5.44-10.71 9.64-15.13.26-.27.49-.9.35-1.15-2.88-5.13-6.32-9.81-11.39-13.02-4.3-2.72-8.86-3.19-13.63-1.32-4.76 1.87-8.66 4.95-11.87 8.86-5.55 6.76-7.85 14.79-8.67 23.3-.87 9.06.17 17.99 2.28 26.81 1.61 6.72 3.9 13.21 6.64 19.55.62 1.44.23 2.54-.93 3.03s-2.15-.03-2.8-1.46c-.88-1.92-1.65-3.9-2.66-5.74-2.78-5.09-6.28-9.61-10.85-13.25-2.21-1.76-4.6-1.84-7.07-.6-1.79.89-3.21 2.21-4.38 3.81-2.92 4.02-3.83 8.6-3.81 15.47m-118.21-7.19c-1.14.96-2.12 1.77-3.18 2.66 1.27.26 2.41.49 3.66.75-.16-1.15-.31-2.19-.48-3.41m265.15-1.68c-.86.78-1.51 1.37-2.29 2.07.8.13 1.37.22 2.02.33.08-.75.16-1.43.27-2.4"/></svg>